Coordinates
version=1
nRows=12
nColumns=42
inDegrees=yes

Units are S.I. units (second, meters, Newtons, ...)
If the header above contains a line with 'inDegrees', this indicates whether rotational values are in degrees (yes) or radians (no).

endheader
time	pelvis_tilt	pelvis_list	pelvis_rotation	pelvis_tx	pelvis_ty	pelvis_tz	hip_flexion_r	hip_adduction_r	hip_rotation_r	knee_angle_r	knee_angle_r_beta	ankle_angle_r	subtalar_angle_r	mtp_angle_r	hip_flexion_l	hip_adduction_l	hip_rotation_l	knee_angle_l	knee_angle_l_beta	ankle_angle_l	subtalar_angle_l	mtp_angle_l	lumbar_extension	lumbar_bending	lumbar_rotation	sh_tx_r	sh_ty_r	sh_tz_r	sh_plane_elev_r	sh_elev_r	sh_axial_rot_r	elbow_flex_r	pro_sup_r	sh_tx_l	sh_ty_l	sh_tz_l	sh_plane_elev_l	sh_elev_l	sh_axial_rot_l	elbow_flex_l	pro_sup_l
      0.00000000	     -1.52251020	      3.02324304	    -14.23171161	      0.17315533	      0.94234695	      0.21497377	     11.36638360	     -0.95793559	    -12.80476485	     16.44029161	      0.28693722	     -0.25602570	    -29.77872865	     -5.28855515	      4.54164594	    -16.85135463	     -9.48594896	     12.58961505	      0.21973023	     -5.39719602	      2.01960061	     -5.28855515	     -7.35343442	      1.90028365	      1.09289744	      0.00421795	     -0.00497648	     -0.00498709	    -29.33363729	     40.51695369	    -24.41652254	     58.78703531	     72.82210151	      0.01546766	     -0.01739793	     -0.00698457	      7.70625512	      7.35798258	     -1.30115332	     31.16665456	     75.08228829
      0.01694910	     -2.20073918	      4.10827205	    -13.70257400	      0.17525808	      0.94137455	      0.20806893	     11.84491129	     -2.19758798	    -13.99131706	     14.74893590	      0.25741749	      1.56149876	    -29.85292830	     -6.05930444	      5.78482569	    -15.30999363	    -11.66461178	     11.81674344	      0.20624108	     -4.13842692	      6.85410936	     -6.05930444	     -4.09968928	      1.42397872	     -0.58227068	      0.00950312	      0.00022729	     -0.00564171	    -27.68016515	     41.59364947	    -25.57470331	     57.33251544	     63.36839273	      0.01898717	     -0.01557492	     -0.00684751	     -1.81133432	      5.45987429	     -1.45018682	     31.13942700	     82.50208959
      0.03389830	     -2.97965922	      3.88076305	    -12.38120528	      0.17830384	      0.93739856	      0.20004447	     11.83795455	     -2.10512770	    -15.83757847	     14.05743444	      0.24534852	     -0.08374498	    -29.98073797	     -6.57060086	      7.02575814	    -15.21473520	    -12.81441108	     11.91752059	      0.20799997	     -4.54083143	      8.54225628	     -6.57060086	     -2.45852560	      2.11237831	     -0.43630922	      0.01051081	      0.00492146	     -0.00518803	    -30.02791951	     41.99465092	    -24.84897453	     58.23385261	     56.59651819	      0.02007108	     -0.01467537	     -0.00651200	     -0.25424542	      5.29181125	     -1.19799913	     30.34921187	     83.26888353
      0.05084750	     -3.00918249	      3.62765281	    -11.10703188	      0.17969178	      0.93458421	      0.19389848	     11.64876196	     -2.09604479	    -16.32711905	     14.24607357	      0.24864089	      0.54357997	    -29.99378662	     -6.58465877	      7.08754218	    -15.05673548	    -13.60825591	     11.78439898	      0.20567656	     -4.14852188	      8.83649734	     -6.58465877	     -2.02488722	      2.49168284	     -1.16967487	      0.01146244	      0.00612185	     -0.00495913	    -30.71551224	     41.50958785	    -25.93392998	     59.51387059	     55.13134028	      0.01738827	     -0.01359855	     -0.00634190	      0.75873095	      5.45753489	     -1.24431169	     30.51558621	     83.13320076
      0.06779660	     -3.10613067	      3.11605539	     -9.94669059	      0.18008146	      0.93855313	      0.18858898	     11.55514801	     -1.58760862	    -16.15569694	     14.42269214	      0.25172346	      1.28267934	    -29.72377432	     -6.81454205	      7.22883861	    -15.06168270	    -13.78677494	     11.46567848	      0.20011384	     -3.58901626	      9.05738180	     -6.81454205	     -1.93548876	      3.06185967	     -1.36727802	      0.01184652	      0.00583177	     -0.00454233	    -32.63181439	     41.24009376	    -24.62447654	     61.05945608	     45.58311708	      0.01789640	     -0.01362283	     -0.00612430	      1.29717854	      5.64595250	     -0.84618848	     31.18803707	     84.18008568
      0.08474580	     -2.97027731	      2.74105563	     -8.81551690	      0.18166684	      0.93761049	      0.18269864	     11.29417161	     -1.25553062	    -15.83407955	     14.84868643	      0.25915847	      2.02692990	    -28.94718086	     -6.86749697	      7.29837232	    -14.90115462	    -13.54789441	     11.31121167	      0.19741789	     -2.83931090	      9.00220292	     -6.86749697	     -2.10264568	      3.32172196	     -2.26195324	      0.01329801	      0.00555105	     -0.00441172	    -33.10790018	     40.54145214	    -25.08377080	     60.92131640	     45.66348736	      0.01736594	     -0.01373492	     -0.00593632	      1.55131814	      6.09634809	     -1.11155343	     31.56237236	     83.45493974
      0.10169490	     -2.99248301	      2.36462748	     -7.90399939	      0.18265127	      0.93795241	      0.17555103	     11.44168451	     -0.92971897	    -14.99035988	     15.39161700	      0.26863439	      2.90095614	    -28.32881284	     -6.93428391	      7.50558617	    -14.74882603	    -13.24102061	     11.14977532	      0.19460029	     -1.68642581	      9.33510097	     -6.93428391	     -2.18070125	      3.68794920	     -2.76367215	      0.01359992	      0.00487222	     -0.00416167	    -33.95242174	     40.03187794	    -25.23329444	     61.08470933	     45.52944277	      0.01735249	     -0.01409343	     -0.00574132	      2.02617465	      6.28716851	     -1.82568234	     31.94229187	     81.81293015
      0.11864410	     -2.85166693	      2.02762350	     -6.99334655	      0.18416271	      0.93733272	      0.16954501	     11.31964794	     -0.63091800	    -14.03255965	     15.71845682	      0.27433882	      3.60125912	    -27.64565488	     -6.94471972	      7.47401591	    -14.42612306	    -12.73012954	     10.89097372	      0.19008335	     -0.89263064	      9.21471058	     -6.94471972	     -2.55974916	      3.84545607	     -3.28895144	      0.01402777	      0.00344236	     -0.00399829	    -34.64315714	     39.65933267	    -24.42813690	     60.93818399	     44.65958136	      0.01707537	     -0.01444107	     -0.00563214	      1.91290031	      6.51883444	     -2.54578609	     32.76142690	     81.64218256
      0.13559320	     -2.63562864	      1.65892888	     -6.03521456	      0.18562738	      0.93964956	      0.16594195	     10.89722799	     -0.19550564	    -13.00739173	     15.70803188	      0.27415688	      4.91597336	    -25.43346095	     -6.98237734	      7.26124618	    -14.29784600	    -12.14509057	     10.58308291	      0.18470964	     -0.18740861	      9.27937770	     -6.98237734	     -2.81900677	      3.86494670	     -3.92729367	      0.01466733	      0.00166758	     -0.00395072	    -35.17657535	     39.01959176	    -23.63630603	     60.32701093	     44.59001188	      0.01717872	     -0.01423011	     -0.00547383	      2.12527463	      6.82860453	     -2.97677061	     32.95228681	     80.59841734
      0.15254240	     -2.73966722	      1.36086826	     -5.39340514	      0.18893004	      0.93384812	      0.15998934	     10.94614590	      0.21445946	    -11.09891906	     15.69137380	      0.27386614	      5.55696402	    -24.31825729	     -6.99330566	      7.26861538	    -14.13632702	    -11.42492601	     10.21458579	      0.17827815	      0.56837667	      9.21760653	     -6.99330566	     -2.78929494	      4.00045002	     -4.42159356	      0.01357668	      0.00102394	     -0.00407239	    -35.45833938	     38.14750079	    -23.14449694	     60.08121481	     44.66572256	      0.01505271	     -0.01423070	     -0.00544261	      2.17440641	      7.25483465	     -2.93616109	     33.35248813	     80.46635578
      0.16949150	     -2.71513017	      1.05658868	     -4.67692084	      0.18990038	      0.93011061	      0.15466876	     10.85708616	      0.51812004	     -9.44640181	     15.85107556	      0.27665346	      7.60941275	    -20.85157522	     -7.01698510	      7.19035958	    -14.01748247	    -10.66488922	      9.89170026	      0.17264274	      1.15986212	      8.48137443	     -7.01698510	     -2.77411717	      4.09318693	     -5.17689900	      0.01420407	      0.00003442	     -0.00428220	    -35.66147546	     37.26277336	    -21.75617614	     60.37736709	     44.76717272	      0.01410622	     -0.01403348	     -0.00531421	      2.78959176	      7.69657846	     -3.11100174	     33.03189738	     79.80174795
      0.18644070	     -2.83289634	      0.79257872	     -3.98053022	      0.19359799	      0.93173511	      0.15114587	     10.67233923	      0.79790997	     -7.65194119	     15.79373891	      0.27565275	      9.11309212	    -17.59742111	     -7.13109734	      7.20116149	    -13.95837883	     -9.99826780	      9.47806436	      0.16542343	      1.82018489	      8.76261638	     -7.13109734	     -2.40569098	      3.98520251	     -4.74991444	      0.01381531	     -0.00217622	     -0.00389893	    -38.95433214	     36.12505205	    -18.78143320	     61.59063813	     45.40481897	      0.01662432	     -0.01412437	     -0.00519220	      0.81253209	      7.58603699	     -2.31769715	     33.79051131	     79.83703992
